<svg width="32" height="32" viewBox="0 0 32 32" fill="none" xmlns="http://www.w3.org/2000/svg">
<path fill-rule="evenodd" clip-rule="evenodd" d="M9.70676 10.2933C9.89403 10.4808 9.99922 10.735 9.99922 11C9.99922 11.265 9.89403 11.5191 9.70676 11.7066L6.41343 15H28.0001C28.2653 15 28.5197 15.1053 28.7072 15.2929C28.8947 15.4804 29.0001 15.7348 29.0001 16C29.0001 16.2652 28.8947 16.5195 28.7072 16.7071C28.5197 16.8946 28.2653 17 28.0001 17H6.41343L9.70676 20.2933C9.80501 20.3849 9.88382 20.4953 9.93847 20.6179C9.99313 20.7406 10.0225 20.873 10.0249 21.0073C10.0273 21.1415 10.0026 21.2749 9.95226 21.3994C9.90197 21.524 9.82711 21.6371 9.73215 21.732C9.63719 21.827 9.52408 21.9018 9.39956 21.9521C9.27504 22.0024 9.14167 22.0271 9.0074 22.0248C8.87313 22.0224 8.74071 21.993 8.61805 21.9383C8.49538 21.8837 8.38498 21.8049 8.29343 21.7066L3.29343 16.7066C3.10616 16.5191 3.00098 16.265 3.00098 16C3.00098 15.735 3.10616 15.4808 3.29343 15.2933L8.29343 10.2933C8.48093 10.106 8.7351 10.0009 9.0001 10.0009C9.2651 10.0009 9.51926 10.106 9.70676 10.2933Z" fill="#524A43"/>
</svg>
