<svg width="34" height="34" viewBox="0 0 34 34" fill="none" xmlns="http://www.w3.org/2000/svg">
<path fill-rule="evenodd" clip-rule="evenodd" d="M11.2653 23.2682C11.4537 23.0818 11.7083 22.9777 11.9733 22.9789C12.2383 22.9801 12.492 23.0864 12.6787 23.2744L15.9575 26.5823L16.0525 4.99579C16.0537 4.73058 16.1602 4.47669 16.3485 4.28998C16.5369 4.10327 16.7917 3.99904 17.0569 4.00021C17.3221 4.00137 17.576 4.10785 17.7627 4.29621C17.9494 4.48457 18.0537 4.73939 18.0525 5.0046L17.9574 26.5911L21.2652 23.3123C21.3572 23.2144 21.468 23.1361 21.5909 23.082C21.7138 23.0279 21.8463 22.9991 21.9806 22.9973C22.1149 22.9955 22.2481 23.0208 22.3724 23.0716C22.4967 23.1225 22.6095 23.1978 22.7041 23.2932C22.7986 23.3886 22.873 23.502 22.9227 23.6268C22.9725 23.7515 22.9966 23.885 22.9936 24.0192C22.9906 24.1535 22.9607 24.2858 22.9055 24.4082C22.8503 24.5306 22.771 24.6407 22.6723 24.7318L17.6504 29.7097C17.462 29.8962 17.2074 30.0002 16.9424 29.9991C16.6774 29.9979 16.4237 29.8916 16.237 29.7035L11.2591 24.6815C11.0727 24.4932 10.9686 24.2386 10.9698 23.9736C10.9709 23.7086 11.0772 23.4549 11.2653 23.2682Z" fill="#524A43"/>
</svg>
